<svg width="130" height="32" viewBox="0 0 130 32" fill="none" xmlns="http://www.w3.org/2000/svg">
<path d="M0 24.3962V27.6721C0 28.2036 0.217369 28.7134 0.60434 29.0895C0.99177 29.466 1.51745 29.6775 2.0656 29.6775H8.5724C9.41727 29.6775 10.2275 29.3515 10.8246 28.7712C21.7728 18.2786 27.9307 17.4077 38.5381 28.2904C38.8434 28.6036 39.1979 28.8809 39.5825 29.0966C40.2607 29.4772 41.0303 29.6775 41.8136 29.6775H47.7035C48.2516 29.6775 48.7773 29.466 49.1647 29.0895C49.5517 28.7134 49.7691 28.2036 49.7691 27.6721V24.3962C49.7691 23.8647 49.5517 23.3549 49.1647 22.9789C48.7773 22.6024 48.2516 22.3908 47.7035 22.3908H35.273C35.0963 22.3908 34.9269 22.3227 34.802 22.2013C34.5423 21.9489 34.5423 21.54 34.802 21.2876L43.8259 12.5188C44.2377 12.1187 44.3985 11.5357 44.2478 10.9893C44.1738 10.7208 44.0282 10.4759 43.8259 10.2793L41.4253 7.94654C40.9257 7.46105 40.1971 7.27144 39.5144 7.44921C39.179 7.53653 38.8732 7.70806 38.6278 7.94654L30.1643 16.1708C29.8858 16.4414 29.4548 16.4965 29.1137 16.3051C28.8448 16.1542 28.6791 15.8755 28.6791 15.574V4.46694C28.6791 3.44941 28.1202 2.50911 27.2127 2H22.133C21.5909 2.52678 21.2864 3.24097 21.2864 3.98561V15.4719C21.2864 15.8196 21.0459 16.1239 20.7 16.214C20.4268 16.2851 20.1352 16.2092 19.9352 16.0149L11.4871 7.80566C11.063 7.39349 10.4874 7.1619 9.8873 7.1619C9.28717 7.1619 8.71165 7.39349 8.28748 7.80566L5.74193 10.2793C5.53955 10.4759 5.39403 10.7208 5.31999 10.9893C5.16932 11.5357 5.33014 12.1187 5.74193 12.5188L15.0269 21.5413C15.1563 21.667 15.2068 21.8502 15.1595 22.0218C15.0995 22.2395 14.8963 22.3908 14.6642 22.3908H2.06561C1.51745 22.3908 0.99177 22.6024 0.60434 22.9789C0.217369 23.3549 0 23.8647 0 24.3962Z" fill="black"/>
<path d="M77.7944 7.83456V29.6775H73.6721L63.9025 15.9414H63.7213V29.6775H58.98V7.83456H63.1475L72.8567 21.5707H73.053V7.83456H77.7944Z" fill="black"/>
<path d="M87.3846 30C85.6834 30 84.2086 29.6482 82.9604 28.9445C81.7222 28.2311 80.7658 27.244 80.0914 25.9832C79.427 24.7127 79.0948 23.237 79.0948 21.556C79.0948 19.8653 79.427 18.3846 80.0914 17.1141C80.7658 15.8436 81.7222 14.8565 82.9604 14.1529C84.2086 13.4394 85.6834 13.0827 87.3846 13.0827C89.0959 13.0827 90.5707 13.4394 91.8089 14.1529C93.0571 14.8565 94.0134 15.8436 94.6778 17.1141C95.3523 18.3846 95.6895 19.8653 95.6895 21.556C95.6895 23.237 95.3523 24.7127 94.6778 25.9832C94.0134 27.244 93.0571 28.2311 91.8089 28.9445C90.5707 29.6482 89.0959 30 87.3846 30ZM83.8512 21.5267C83.8512 22.9536 84.1482 24.1312 84.7421 25.0597C85.3361 25.9881 86.2219 26.4524 87.3997 26.4524C88.5674 26.4524 89.4483 25.9881 90.0422 25.0597C90.6361 24.1312 90.9331 22.9536 90.9331 21.5267C90.9331 20.0998 90.6361 18.9271 90.0422 18.0084C89.4483 17.0897 88.5674 16.6304 87.3997 16.6304C86.2219 16.6304 85.3361 17.0897 84.7421 18.0084C84.1482 18.9271 83.8512 20.0998 83.8512 21.5267Z" fill="black"/>
<path d="M103.09 29.9414C101.802 29.9414 100.639 29.6188 99.6022 28.9738C98.5653 28.3288 97.7449 27.3808 97.1409 26.1298C96.5369 24.8691 96.2349 23.3298 96.2349 21.512C96.2349 19.6356 96.547 18.0719 97.1711 16.8209C97.7953 15.57 98.6257 14.6366 99.6626 14.0209C100.699 13.3955 101.832 13.0827 103.06 13.0827C104.006 13.0827 104.797 13.2391 105.431 13.5518C106.065 13.8548 106.578 14.236 106.971 14.6953C107.364 15.1546 107.66 15.6091 107.862 16.0586H107.998V7.83456H112.679V29.6775H108.073V27.0534H107.862C107.65 27.503 107.343 27.9525 106.941 28.4021C106.538 28.8419 106.02 29.2084 105.385 29.5016C104.761 29.7948 103.996 29.9414 103.09 29.9414ZM108.103 21.4974C108.103 20.0314 107.796 18.8635 107.182 17.9937C106.568 17.1239 105.692 16.689 104.555 16.689C103.397 16.689 102.516 17.1337 101.912 18.023C101.319 18.9124 101.022 20.0705 101.022 21.4974C101.022 22.9145 101.324 24.0775 101.928 24.9864C102.532 25.8855 103.407 26.3351 104.555 26.3351C105.682 26.3351 106.553 25.8904 107.167 25.001C107.791 24.1117 108.103 22.9438 108.103 21.4974Z" fill="black"/>
<path d="M122.254 30C120.522 30 119.032 29.6579 117.784 28.9738C116.536 28.2897 115.575 27.3173 114.9 26.0565C114.226 24.786 113.888 23.2859 113.888 21.556C113.888 19.875 114.221 18.3993 114.885 17.1288C115.56 15.8583 116.506 14.8663 117.724 14.1529C118.942 13.4394 120.376 13.0827 122.027 13.0827C123.517 13.0827 124.861 13.3906 126.059 14.0063C127.267 14.622 128.223 15.5455 128.928 16.777C129.643 18.0084 130 19.5525 130 21.4094V22.6408H118.494C118.544 23.882 118.917 24.8545 119.611 25.5581C120.306 26.2618 121.212 26.6136 122.329 26.6136C123.104 26.6136 123.769 26.4524 124.322 26.1298C124.886 25.8073 125.289 25.3382 125.53 24.7225L129.849 25.001C129.517 26.5061 128.686 27.718 127.358 28.6366C126.039 29.5456 124.338 30 122.254 30ZM118.524 19.8408H125.515C125.405 18.8049 125.062 17.9839 124.489 17.378C123.915 16.7721 123.109 16.4691 122.073 16.4691C121.026 16.4691 120.195 16.7867 119.581 17.422C118.977 18.0475 118.625 18.8538 118.524 19.8408Z" fill="black"/>
</svg>
